<svg xmlns="http://www.w3.org/2000/svg" width="187.8" height="206.2" viewBox="0 0 187.8 206.2"><title>book_1_Number</title><g id="Layer_2" data-name="Layer 2"><g id="Layer_1-2" data-name="Layer 1"><g id="Layer_2-2" data-name="Layer 2-2"><path d="M160.4,123.7s30.7,13.2,31,13.9,2.3,3.4-1,5.3-96,73.5-96,73.5a6.3,6.3,0,0,1-7.9.5c-4.6-2.9-71-46.4-72.9-47.8S5.5,158,4.9,148s.6-13.7,2.9-15.2,110.6-26.9,110.6-26.9Z" transform="translate(-4.5 -11.8)" fill="#4b7dab"/><path d="M184,108.4v30.7l-93.3,73L17.4,165.5s-6.3-6-7.3-17.3S11.5,135,11.5,135Z" transform="translate(-4.5 -11.8)" fill="#dadbdc"/><path d="M184,108.4v30.7l-93.3,73s-4.1-5.6-5.2-16.8.4-14.9.4-14.9Z" transform="translate(-4.5 -11.8)" fill="#ededee"/><path d="M7.8,132.6l97-61.5s2.7-2.1,4.8-1.7,79.1,34.4,79.1,34.4,2.5,1.7.7,4.8-99.8,73.2-99.8,73.2a4.3,4.3,0,0,1-4.4,0Z" transform="translate(-4.5 -11.8)" fill="#044b7f"/><polyline points="5.4 127.5 80.6 176.9 179.5 106.1" fill="none" stroke="#bcbec0" stroke-width="1.05"/><polyline points="5.6 133.9 80.8 183.4 178.6 113.5" fill="none" stroke="#bcbec0" stroke-width="1.05"/><polyline points="6.6 140.2 81.6 188.7 178.9 118.8" fill="none" stroke="#bcbec0" stroke-width="1.05"/><polyline points="8.7 146.9 83.5 195.2 179.1 125.1" fill="none" stroke="#bcbec0" stroke-width="1.05"/></g><path d="M13.8,22.2H4.5V11.8H25.3v73H13.8Z" transform="translate(-4.5 -11.8)"/></g></g></svg>