<svg xmlns="http://www.w3.org/2000/svg" width="227.3" height="261.86" viewBox="0 0 227.3 261.86"><title>draw_b</title><g id="Layer_2" data-name="Layer 2"><g id="Layer_1-2" data-name="Layer 1"><polygon points="4.23 261.86 21.89 261.86 47.73 169.52 30.08 169.52 4.23 261.86" style="fill:#be892f"/><polygon points="21.64 261.86 27.5 258.83 52.47 169.52 47.48 169.52 21.64 261.86" style="fill:#88611b"/><polygon points="178.41 261.86 160.75 261.86 134.91 169.52 152.57 169.52 178.41 261.86" style="fill:#be892f"/><polygon points="161 261.86 155.15 258.83 130.17 169.52 135.16 169.52 161 261.86" style="fill:#88611b"/><rect x="82.75" width="16.9" height="210.64" style="fill:#845e19"/><rect x="11.61" y="41.88" width="161.71" height="121.09" style="fill:#d39735"/><rect y="158.93" width="183.15" height="15.9" style="fill:#966b20"/><polygon points="164.67 51.79 25.24 54.15 27.19 144.95 166.62 142.59 164.67 51.79" style="fill:#9d7124"/><rect x="24.92" y="48.3" width="135.72" height="93.34" transform="translate(-1.8 1.8) rotate(-1.1)" style="fill:#fff"/><polygon points="114.33 48.94 68.56 48.94 70.64 33.3 112.26 33.3 114.33 48.94" style="fill:#be892f"/><polygon points="114.33 48.94 68.56 48.94 69.88 51.46 113.27 51.72 114.33 48.94" style="fill:#8a621b"/><path d="M94.6,41.12a3,3,0,1,0-3,3A3,3,0,0,0,94.6,41.12Z" style="fill:#71500f"/><path d="M34.06,41.62S31,53.23,37.34,53s4.54-11.35,4.54-11.35Z" style="fill:#b8babc"/><path d="M39.35,48.44a2,2,0,1,1-2-2A2,2,0,0,1,39.35,48.44Z" style="fill:#939598"/><path d="M144.3,41.88s-3,11.6,3.28,11.35,4.54-11.35,4.54-11.35Z" style="fill:#b8babc"/><path d="M149.6,48.69a2,2,0,1,1-2-2A2,2,0,0,1,149.6,48.69Z" style="fill:#939598"/><path d="M94.1,180.37a3,3,0,1,1-3-3A3,3,0,0,1,94.1,180.37Z" style="fill:#614304"/><path d="M94.1,201.06a3,3,0,1,1-3-3A3,3,0,0,1,94.1,201.06Z" style="fill:#614304"/><polygon points="0 158.93 183.15 158.93 173.06 153.88 11.35 153.88 0 158.93" style="fill:#be892f"/><line x1="0.5" y1="172.05" x2="183.15" y2="169.78" style="fill:none;stroke:#5f4202;stroke-width:0.5174300000000001px"/><line x1="182.64" y1="166.5" x2="0.25" y2="164.98" style="fill:none;stroke:#5f4202;stroke-width:0.5174300000000001px"/><line y1="162.71" x2="182.64" y2="161.96" style="fill:none;stroke:#5f4202;stroke-width:0.5174300000000001px"/><line x1="153.13" y1="251.26" x2="175.58" y2="251.51" style="fill:none;stroke:#5f4202;stroke-width:0.511714px"/><line x1="174.07" y1="246.72" x2="152.63" y2="247.98" style="fill:none;stroke:#5f4202;stroke-width:0.5174300000000001px"/><line x1="28.86" y1="251.26" x2="7.65" y2="251.51" style="fill:none;stroke:#5f4202;stroke-width:0.49746px"/><line x1="9.08" y1="246.72" x2="29.34" y2="247.98" style="fill:none;stroke:#5f4202;stroke-width:0.503015px"/><path d="M84.8,121.71h22.4s-.92-2.21-2.21-2.4a4.08,4.08,0,0,0-2.67,1s-1.66-2.4-3.5-2.49-3.6,2.3-3.6,2.3a6.13,6.13,0,0,0-4.15-2.39C88.49,117.56,84.8,121.71,84.8,121.71Z" style="fill:#fff;stroke:#231f20;stroke-width:0.36464399999999997px"/><path d="M118.92,118.24h22.4s-.92-2.21-2.21-2.39a4.13,4.13,0,0,0-2.68,1s-1.66-2.39-3.5-2.48-3.59,2.3-3.59,2.3a6.17,6.17,0,0,0-4.15-2.4C122.61,114.1,118.92,118.24,118.92,118.24Z" style="fill:#fff;stroke:#231f20;stroke-width:0.36464399999999997px"/><polygon points="82.17 124.62 92.38 124.62 94.01 120.02 91.15 123.19 91.15 117.58 89.32 122.68 88.83 117.98 87.79 123.39 85.85 117.17 85.64 122.78 82.48 119.72 83.81 123.29 79.93 121.04 82.17 124.62" style="fill:#fff;stroke:#231f20;stroke-width:0.36464399999999997px"/><polygon points="138.12 123.95 148.32 123.95 149.96 119.36 147.1 122.52 147.1 116.91 145.26 122.01 144.77 117.31 143.73 122.72 141.79 116.5 141.59 122.11 138.43 119.05 139.75 122.62 135.88 120.37 138.12 123.95" style="fill:#fff;stroke:#231f20;stroke-width:0.36464399999999997px"/><path d="M126.16,81.4c-.75-.11-3.63-1.07-3.63-1.07a10.58,10.58,0,0,0,1.81-4.06c-.32-.08-.62-.15-.9-.2a9.61,9.61,0,0,0-7.1,1.48c-3.64,2.28-5.86,5.79-4.84,9.87a9.37,9.37,0,0,1,1.41-.47,49.59,49.59,0,0,0,6.09-.42c1.61-.32,4.71-1,5.35-1s1.17.11,1.06.43-4,3.1-4.8,3.21-2.57.53-3,.53a5.94,5.94,0,0,0-2.88.32c-1,.53-3.31,2.89-3.31,3.42s5.13.75,7,.32a13.22,13.22,0,0,0,4.17-1.39c.75-.53,6.73-5.34,7-6.52s.21-3.1-.21-3.52A9.86,9.86,0,0,0,126.16,81.4Z" style="fill:#fff;stroke:#231f20;stroke-width:0.36464399999999997px"/><path d="M118.05,89.68a3.25,3.25,0,0,1-.44,0,5.94,5.94,0,0,0-2.88.32c-1,.53-3.31,2.89-3.31,3.42s3.28.65,5.57.5A11.87,11.87,0,0,0,118.05,89.68Z" style="fill:#fff;stroke:#231f20;stroke-width:0.36464399999999997px"/><path d="M80.35,89.77a10.06,10.06,0,0,0-6.82-.24A23.38,23.38,0,0,0,69.18,92c.19,1.11.44,2.15.66,3.07.75,3.1.54,3.63-.1,4.17s-5,3-6.2,3.09-2.57,1-2.46,4.17.32,7.91-.75,9.94a8.27,8.27,0,0,0-1.17,2.46c0,.53,1.17,1.39.75,1.81s-1.39,1-1.93.75-.75-.85-1.07-.75a2.71,2.71,0,0,0-1.71,2.36,17.82,17.82,0,0,0,.32,3.73s7.27-3.73,7.7-6.09,1.07-9,1.6-10.68,4.38-4.06,8-5.24S83.31,100.74,84.27,98c.75-2.17,1-4,1.61-5A16.26,16.26,0,0,0,80.35,89.77Z" style="fill:#fff;stroke:#231f20;stroke-width:0.36464399999999997px"/><path d="M58.69,121.44a1.09,1.09,0,0,1-.71,0c-.53-.21-.75-.85-1.07-.75a2.71,2.71,0,0,0-1.71,2.36,17.82,17.82,0,0,0,.32,3.73S57,126,58.69,125Z" style="fill:#fff;stroke:#231f20;stroke-width:0.36464399999999997px"/><path d="M142.8,61.42a5.75,5.75,0,0,0,1.77-1.12l.94-1.13s.1,4.2-2.5,4.81S142.8,61.42,142.8,61.42Z" style="fill:#fff;stroke:#231f20;stroke-width:0.18232299999999999px"/><path d="M143.47,62.27s1.29,1,1.39,1.71S144,65.9,144,65.9s-2-3-1.07-3.63" style="fill:#fff;stroke:#231f20;stroke-width:0.18232299999999999px"/><path d="M141.23,61.41s-1.07-1.92-1.6-2a5.38,5.38,0,0,0-1.39,0s-.86-1.28-1.6-1.28h-1.29s-1.49-1.6-2.13-1.49l-1.39.21s-1.39-1.18-2.14-1.07a3.48,3.48,0,0,0-1.5.75,7.64,7.64,0,0,0-2.45-.43,4.75,4.75,0,0,0-1.93,1.07,6.29,6.29,0,0,0-2.24-.32,8,8,0,0,0-1.29,1.06s-1.49-.53-1.81-.21a8.69,8.69,0,0,0-.86,1.28,1.57,1.57,0,0,0-1.17.32c-.43.43-.32,2-.32,2Z" style="fill:#fff;stroke:#231f20;stroke-width:0.36464399999999997px"/><path d="M67.6,81.82s-10.84-1.21-14.43,0c-7.26,2.46-9.82,15.6-11.86,17.64a14.93,14.93,0,0,1-6.2,4s.32.54,3.21,0a11.17,11.17,0,0,0,4.7-2,20.12,20.12,0,0,1-4.49,3.31,14.83,14.83,0,0,1-4.91.64s4.17,1.5,7.16.11a8.1,8.1,0,0,0,3.95-3.53,4.27,4.27,0,0,1-1,2.36c-.86.85-2.67,2.35-2.67,2.35s3.57-1,5.13-2.89c1.92-2.35,2-3.85,2-3.85a2.68,2.68,0,0,1-.11,2.46A29.83,29.83,0,0,1,46,105.12a7.54,7.54,0,0,0,4.17-3.31,15.16,15.16,0,0,0,1.5-2.68,4.89,4.89,0,0,1-.75,3.32,7.24,7.24,0,0,1-1.07,1.17s3.1.54,4.81-6c1-3.84,1.61-10.13,3.95-11.54,5.13-3.1,6.95-2.57,7.81-2.57S67.6,81.82,67.6,81.82Z" style="fill:#fff;stroke:#231f20;stroke-width:0.36464399999999997px"/><path d="M151,77.12c-.42-.43-1.17-1.28-1.17-1.28a30.67,30.67,0,0,0-1.71-4.28,15.43,15.43,0,0,0-1.39-2,2.43,2.43,0,0,0-.32-1.39,30.21,30.21,0,0,0-2-2.77c-.43-.75-1.07-1.93-1.07-1.93l-.36-.27.15-.15c1.6-1.82.85-5.78.85-5.78a7.24,7.24,0,0,1-2,3,7.58,7.58,0,0,1-1.64,1.1c-2.67-1.7-6.61-3.88-9.79-4.2-8.34-.86-17.67,4.61-18.7,5.23s-5.54,2.18-6.95,3c-2,1.17-5.66,3.2-8.12,4.91L92.5,72.2s-7,2.14-14,3.64c-4.32.93-12,4-13.57,8.44s-.54,8.87.21,12,.54,3.63-.1,4.17-5,3-6.2,3.1-2.57,1-2.46,4.16.32,7.91-.75,9.94a8.5,8.5,0,0,0-1.17,2.46c0,.54,1.17,1.39.74,1.82s-1.38,1-1.92.75-.75-.86-1.07-.75a2.71,2.71,0,0,0-1.71,2.35,17.23,17.23,0,0,0,.32,3.74s7.27-3.74,7.7-6.09,1.06-9,1.6-10.69,4.38-4.06,8-5.23,10.48-4.07,11.44-6.85,1.07-5,2.24-5.66S97.52,93,102,92.3s10.37-3.42,10.9-3.42a50,50,0,0,0,6.09-.43c1.61-.32,4.71-1,5.35-1s1.17.1,1.06.43-4,3.09-4.8,3.2-2.57.53-3,.53a5.94,5.94,0,0,0-2.88.32c-1,.54-3.31,2.89-3.31,3.43s5.13.74,7,.32a13.48,13.48,0,0,0,4.17-1.39c.75-.54,6.73-5.34,7-6.52s.21-3.1-.21-3.53a10.1,10.1,0,0,0-3.32-1c-.75-.11-3.63-1.07-3.63-1.07a10.26,10.26,0,0,0,1.82-4.17c.1-1.81.1-3.1.1-3.1s2.78-4.16,6.2-4.38a11.56,11.56,0,0,1,5.77,1.07s0,2.35,1,3.42A14.3,14.3,0,0,0,141,77.33a17.51,17.51,0,0,0,2.13,1.61c.64.32,2.36,1,2.36,1s.53,2.56,1.28,2.56a3.08,3.08,0,0,0,1.6-.74s2.24,0,2.46-1,.1-1.82.43-2.25S151.38,77.55,151,77.12Z" style="fill:#fff;stroke:#231f20;stroke-width:0.36464399999999997px"/><path d="M53.46,122.68a.57.57,0,0,1-.18,0c-.53-.22-.75-.86-1.07-.75a2.71,2.71,0,0,0-1.71,2.35,17.23,17.23,0,0,0,.32,3.74s1.45-.75,3.09-1.78A11,11,0,0,0,53.46,122.68Z" style="fill:#fff;stroke:#231f20;stroke-width:0.36464399999999997px"/><path d="M145.18,68.73c0,.44-.26.8-.58.8s-.59-.36-.59-.8.26-.8.59-.8S145.18,68.29,145.18,68.73Z" style="fill:#231f20"/><path d="M150.21,78.51s-.86-1.71-1.6-1.07S149.46,78.83,150.21,78.51Z" style="fill:none;stroke:#231f20;stroke-width:0.18232299999999999px"/><path d="M117.36,91.64a5.26,5.26,0,0,0-2.63.33c-1,.54-3.31,2.89-3.31,3.43,0,.39,2.74.61,5,.53A8.07,8.07,0,0,0,117.36,91.64Z" style="fill:#fff;stroke:#231f20;stroke-width:0.36464399999999997px"/><path d="M75.72,84.28s4,2,4.63,5.49S81.92,84.82,75.72,84.28Z" style="fill:none;stroke:#231f20;stroke-width:0.18232299999999999px"/><path d="M110.67,81.29s4.17-1.6,6-1.6a18.94,18.94,0,0,1,4.92,1.17A8.88,8.88,0,0,0,110.67,81.29Z" style="fill:none;stroke:#231f20;stroke-width:0.18232299999999999px"/><path d="M139.52,63.12s-2,3.1-2.24,4.49a17.48,17.48,0,0,0-.22,2.46S135.57,66.86,139.52,63.12Z" style="fill:#fff;stroke:#231f20;stroke-width:0.18232299999999999px"/><polygon points="131.95 101.49 94.76 105.61 94.76 103.37 131.95 99.26 131.95 101.49" style="fill:#fff;stroke:#231f20;stroke-width:0.36464399999999997px"/><polygon points="131.95 112.21 94.76 116.33 94.76 114.09 131.95 109.98 131.95 112.21" style="fill:#fff;stroke:#231f20;stroke-width:0.36464399999999997px"/><rect x="130.77" y="91.21" width="4.38" height="37.19" style="fill:#fff;stroke:#231f20;stroke-width:0.36464399999999997px"/><rect x="92.09" y="96.13" width="4.38" height="31.85" style="fill:#fff;stroke:#231f20;stroke-width:0.36464399999999997px"/><path d="M132.38,100.08a.43.43,0,1,1-.43-.42A.43.43,0,0,1,132.38,100.08Z" style="fill:#231f20"/><path d="M95.72,104a.43.43,0,1,1-.43-.43A.42.42,0,0,1,95.72,104Z" style="fill:#231f20"/><path d="M93.69,104.15a.43.43,0,1,1-.85,0,.43.43,0,1,1,.85,0Z" style="fill:#231f20"/><path d="M93.48,115a.43.43,0,0,1-.43.43.43.43,0,1,1,0-.85A.42.42,0,0,1,93.48,115Z" style="fill:#231f20"/><path d="M134.09,99.87a.43.43,0,1,1-.43-.43A.43.43,0,0,1,134.09,99.87Z" style="fill:#231f20"/><path d="M134.3,110.77a.43.43,0,1,1-.42-.43A.42.42,0,0,1,134.3,110.77Z" style="fill:#231f20"/><path d="M95.72,114.94a.43.43,0,1,1-.85,0,.43.43,0,1,1,.85,0Z" style="fill:#231f20"/><path d="M132.06,111.2a.43.43,0,1,1-.86,0,.43.43,0,1,1,.86,0Z" style="fill:#231f20"/><path d="M92.09,96.13h4.38s-.85,1.5-2,1.5S92.09,96.13,92.09,96.13Z" style="fill:#fff;stroke:#231f20;stroke-width:0.36464399999999997px"/><path d="M130.77,91.21h4.38s-1,1.71-2.24,1.71S130.77,91.21,130.77,91.21Z" style="fill:#fff;stroke:#231f20;stroke-width:0.36464399999999997px"/><polygon points="93.31 129.17 103.51 129.17 105.14 124.58 102.28 127.74 102.28 122.13 100.45 127.23 99.96 122.54 98.92 127.95 96.98 121.72 96.78 127.33 93.61 124.27 94.94 127.84 91.06 125.6 93.31 129.17" style="fill:#fff;stroke:#231f20;stroke-width:0.36464399999999997px"/><polygon points="128.04 129.47 138.24 129.47 139.87 124.88 137.02 128.04 137.02 122.43 135.18 127.53 134.69 122.84 133.65 128.25 131.71 122.02 131.51 127.64 128.35 124.57 129.67 128.14 125.8 125.9 128.04 129.47" style="fill:#fff;stroke:#231f20;stroke-width:0.36464399999999997px"/><path d="M97.31,115.33s-.39,3.79,2,3.89a5.88,5.88,0,0,0,3.89-1.17Z" style="fill:#c88b6c"/><path d="M86.6,109.6s-1.65,6.32,2.24,6.8,5.84-3.11,5.84-3.11S89.72,109.79,86.6,109.6Z" style="fill:#c88b6c"/><path d="M85.4,101.51l3.7-.2.32,6.66-3.79.26s-11.48-2.38-12.06-2.38S85.4,101.51,85.4,101.51Z" style="fill:#b67e1d"/><path d="M76.59,104.64a18.55,18.55,0,0,0-3,1.21c.18,0,1.55.25,3.29.59C76.76,105.85,76.66,105.25,76.59,104.64Z" style="fill:#533700"/><path d="M136.72,155.49a2,2,0,0,0-.09-.26,49,49,0,0,0-3.9-6.16c-3.67-2.12-4.28-1.36-6.91-3.21s-5.15-8.17-5.15-8.17-4.87-4.27-6.43-5.35-6.13-7.19-7-9.62c-.59-1.65-14.3-8.75-18.1-11.18s-4.86-5.74-4.57-7.49c.25-1.54,1.84-2.53,1.46-2.82-1.86-1.39-.2-4-.2-4l12.06-7s9-9.16,13.52-9.25c10-.2,24.61,8,26.17,9.33s8.57,27.53,9.25,30.83S163,148.08,163,148.08l-.59,1.56-21.88,13.73" style="fill:#df9b78"/><path d="M92,102.78s-4.09-1.94-5.93.39,2.54,7.4,3.11,5.74A37.61,37.61,0,0,1,92,102.7" style="fill:#e3c1a3"/><path d="M89.53,95.11s-.31,2.42-3.71,3.39c-.21.06.18-1.32.18-1.32Z" style="fill:#e3c1a3"/><path d="M120.67,137.69s4.47,4.77,7.88,6.32c2.11,1,5.15,2,5.15,2S121,137.79,120.67,137.69Z" style="fill:#c88b6c"/><path d="M109.74,85.46s1.47,2.92,1.37,4.77a10.1,10.1,0,0,1-.58,3S110.42,85.65,109.74,85.46Z" style="fill:#b98164"/><path d="M100.51,93.83a5.88,5.88,0,0,1,2.14,4.57S100.51,93.93,100.51,93.83Z" style="fill:#b98164"/><path d="M113.93,96.74s.88,1.85.68,2.43S116,97.71,113.93,96.74Z" style="fill:#b98164"/><path d="M128.43,95.76s-4.76,6.42-7.3,8.66-5.54,4.48-5.54,4.48S127,102.28,128.43,95.76Z" style="fill:#b98164"/><path d="M96.89,101l66.36-5.15s4.28-.71,4.48,2.92-4.86,3.5-4.86,3.5l-53.8,4s-12.16-5-11.28-4.67C98.34,101.8,96.89,101,96.89,101Z" style="fill:#b82d2d"/><path d="M86.11,101.42c5.84-2.73,15.18.68,17.22,1.94a77,77,0,0,0,12.16,5.15,15.55,15.55,0,0,0,5.94,0,14.31,14.31,0,0,1-5.45.88c-2.33-.3-13.46-5.44-14.88-6C91.85,99.57,86.11,101.42,86.11,101.42Z" style="fill:#9f6f56"/><path d="M103.23,99.27C97,102,95.94,101,95.94,101c3.79.39,14.59-6.82,14.59-6.82s3.69,1.46,6.22,1.17,5.93-4.19,5.93-4.19-1.94,4.48-6.51,4.67-5.64-.68-5.64-.68S104.78,98.6,103.23,99.27Z" style="fill:#9f6f56"/><path d="M97.79,101.61a19.34,19.34,0,0,0,1.8.78l67.84-4.89c-1-2.18-4.18-1.66-4.18-1.66L96.89,101S98.34,101.8,97.79,101.61Z" style="fill:#7e1614"/><path d="M104.73,104.5l4.34,1.78,53.8-4s3.55,0,4.58-2.08Z" style="fill:#7e1614"/><path d="M163.25,95.84l-1.53.12c0,2.15.5,4.22.69,6.34l.46,0s5.06,0,4.86-3.5S163.25,95.84,163.25,95.84Z" style="fill:#390000"/><path d="M135.17,153.86S159,206.2,163.94,213.24s18.07,20.35,26.32,21.12c29.39,2.75,37,3.06,37,3.06l-6.43-45.91s-23.87-4.9-25.1-5.82S155.06,136.41,153.84,134,138.23,141.92,135.17,153.86Z" style="fill:#4b8029"/></g></g></svg>