<svg xmlns="http://www.w3.org/2000/svg" width="221.7" height="186.5" viewBox="0 0 221.7 186.5"><title>Asset 6</title><g id="Layer_2" data-name="Layer 2"><g id="Layer_1-2" data-name="Layer 1"><path d="M187.3,128.4c-6.1-.4-14.9-.8-20.8,1-7.7,2.4-16.6,9.1-20.7,16.1-2.3,3.9-4.1,11.2-6.5,15.2-4.1,6.7-9.5,11.8-17.4,13.6a22.7,22.7,0,0,1-14.3-1.4c-7.5-3.4-12.7-9.2-16.7-16.2-2-3.5-9.4-9.8-12.8-12.1a24.4,24.4,0,0,0-10.8-3.7c-4.2-.5-14.4,1.4-18.7.9s-8.7-.9-12.9-1.7a13.2,13.2,0,0,1-8.4-5.5c-2-2.8-2.3-6-1.9-9.4s3.1-8.1,5.1-12.1a32.6,32.6,0,0,0,3.2-8c1.5-6.6.6-15.3-5.7-19.5-2.2-1.5-4.6-2.6-6.7-4.2A10.6,10.6,0,0,1,17,71.2c.7-5.1,3.7-8.1,8.6-9.3s7.8-1.8,12.2-3c6-1.7,15.3-5.2,16.9-11.5a35.3,35.3,0,0,0,.8-10.3c-.5-6.7-.7-13.5,2.8-19.7A18.9,18.9,0,0,1,72.2,8.3c5.7-.8,10.8,1,15.3,4.4s8.7,7.8,13.4,10,10.7,1.7,17.4-.4,13.8-7.5,20.5-10.6,13.7-4,19.6-4.5a31.2,31.2,0,0,1,16.5,2.9c7.4,3.6,11.9,9.6,14.2,17.4a23.7,23.7,0,0,1,1.2,8.8,102.8,102.8,0,0,1-2.1,10.8c-1,4.4-2.5,8.8-3.4,13.2a37.7,37.7,0,0,0-.5,11.1c.6,7.7,7.3,13.6,12.5,18.9,3.2,3.2,6.4,6.4,9.5,9.7a17.2,17.2,0,0,1,4,9.8,16.8,16.8,0,0,1-4,13.6c-2.5,3-5.9,3.7-9.8,4.3S190.4,128.2,187.3,128.4Zm-18.8-115v.4h-.2c-1-.2-1.9,0-2.1,1.1s-.3,2.1,1.3,2l.3.2,5.1,3.5a25.9,25.9,0,0,0,3.9,2.5,2.2,2.2,0,0,0,1.8-.1,1.7,1.7,0,0,0,.4-1.6c-1.1-1.9-1.9-4-3.8-5.2a20.2,20.2,0,0,0-3-1.4Zm26.9,86.4a6.6,6.6,0,0,0,.3,1.5l3,3.7a25,25,0,0,0,3.2,3.3,3.4,3.4,0,0,0,2.2.7c.3-.1.6-1.2.7-1.8a6.1,6.1,0,0,0-.5-1.8,8.2,8.2,0,0,0-2.5-3.8c-1.1-1-2.1-2.1-3.3-3S195.5,98.2,195.4,99.8ZM78.5,13.2c-1.1-.4-1.9.4-2.2,1.4a2.1,2.1,0,0,0,.9,2,41.8,41.8,0,0,0,5.6,2.8c.8.3,1.9-1.2,1.7-2C83.6,14.8,81.5,13.7,78.5,13.2ZM29.4,64.5l-2.7,1.1a1.3,1.3,0,0,0-.5,1.8,2.6,2.6,0,0,0,1.7.9,4.1,4.1,0,0,0,1.9,0l2.9-.7c.3-.1.5-1,.3-1.3S31.2,64.6,29.4,64.5Zm101.2,94.8c-.4-.5-.5-1-.8-1.1s-1.6-.4-2-.1a13.4,13.4,0,0,0-2.2,3.1c-.5.9.2,1.6.9,2s1.3.1,1.8-.6.6-.5.9-.9ZM35.4,121.8c1.4-.2,3.6-1.6,4-2.7a1.5,1.5,0,0,0-1.3-2c-1.9-.4-2.7,1-3.8,1.9a1.8,1.8,0,0,0-.3,1.6A5.5,5.5,0,0,0,35.4,121.8ZM183.1,27.6a1.4,1.4,0,0,0-1.6-1.4c-1,0-1.1.7-1.1,1.5s.4,1.6,1.6,1.6S183.2,28.8,183.1,27.6Z" fill="#f77c00"/><path d="M168.5,13.4l3.6,1.4a20.2,20.2,0,0,1,3,1.4c1.9,1.2,2.7,3.3,3.8,5.2a1.7,1.7,0,0,1-.4,1.6,2.2,2.2,0,0,1-1.8.1,25.9,25.9,0,0,1-3.9-2.5l-5.1-3.5-.3-.2c-1.6.1-1.6-.9-1.3-2s1.1-1.3,2.1-1.1h.2Z" fill="#fff"/><path d="M195.4,99.8c.1-1.6,1.6-2.2,3.1-1.2s2.2,2,3.3,3a8.2,8.2,0,0,1,2.5,3.8,6.1,6.1,0,0,1,.5,1.8c-.1.6-.4,1.7-.7,1.8a3.4,3.4,0,0,1-2.2-.7,25,25,0,0,1-3.2-3.3l-3-3.7A6.6,6.6,0,0,1,195.4,99.8Z" fill="#fff"/><path d="M78.5,13.2c3,.5,5.1,1.6,6,4.2.2.8-.9,2.3-1.7,2a41.8,41.8,0,0,1-5.6-2.8,2.1,2.1,0,0,1-.9-2C76.6,13.6,77.4,12.8,78.5,13.2Z" fill="#fff"/><path d="M29.4,64.5c1.8.1,3,.5,3.6,1.8s0,1.2-.3,1.3l-2.9.7a4.1,4.1,0,0,1-1.9,0,2.6,2.6,0,0,1-1.7-.9,1.3,1.3,0,0,1,.5-1.8Z" fill="#fff"/><path d="M130.6,159.3l-1.4,2.4c-.3.4-.7.6-.9.9s-1,1.1-1.8.6-1.4-1.1-.9-2a13.4,13.4,0,0,1,2.2-3.1c.4-.3,1.3-.1,2,.1S130.2,158.8,130.6,159.3Z" fill="#fff"/><path d="M35.4,121.8a5.5,5.5,0,0,1-1.4-1.2,1.8,1.8,0,0,1,.3-1.6c1.1-.9,1.9-2.3,3.8-1.9a1.5,1.5,0,0,1,1.3,2C39,120.2,36.8,121.6,35.4,121.8Z" fill="#fff"/><path d="M183.1,27.6c.1,1.2-.2,1.7-1.1,1.7s-1.5-.7-1.6-1.6.1-1.5,1.1-1.5A1.4,1.4,0,0,1,183.1,27.6Z" fill="#fff"/><path d="M199.7,158.7c-.1,6.3-1.4,12.2-5.4,17.2s-9.8,9.3-16.7,10.4a14.3,14.3,0,0,1-10.9-2.7,32.7,32.7,0,0,1-12.1-16c-.8-2.4-1.6-4.9-2.2-7.3a16.2,16.2,0,0,1,1-9.2c1.4-4.1,3.6-7.8,7.5-10.1a27.2,27.2,0,0,1,8.3-3.3,46.8,46.8,0,0,1,9.1-.9c9.1.3,15.8,4.4,19.7,12.8A22,22,0,0,1,199.7,158.7ZM194,153a12.3,12.3,0,0,0-3-6.5,4.7,4.7,0,0,0-1.4-1.4c-.8-.5-1.7-.8-2.5-1.2a4.3,4.3,0,0,0-2.9-.6,1.1,1.1,0,0,0-1,1.7,5.6,5.6,0,0,0,.5.8l7.7,7.9a2,2,0,0,0,1.8.5C193.6,154.1,193.8,153.3,194,153Z" fill="#f77c00"/><path d="M194,153c-.2.3-.4,1.1-.8,1.2a2,2,0,0,1-1.8-.5l-7.7-7.9a5.6,5.6,0,0,1-.5-.8,1.1,1.1,0,0,1,1-1.7,4.3,4.3,0,0,1,2.9.6c.8.4,1.7.7,2.5,1.2a4.7,4.7,0,0,1,1.4,1.4A12.3,12.3,0,0,1,194,153Z" fill="#fff"/><path d="M31.2,51.1a17.5,17.5,0,0,1-11.7-4.3c-4.1-3.7-4-8.8-.6-13.1A11.8,11.8,0,0,1,28,28.8c4-.1,7.2,1.8,9.8,4.8s2.8,5.1,3.1,8.1c.4,4.8-2.5,8.3-7.4,9.1ZM29.6,31.5H28.5c-.9.1-1.2.7-.7,1.6a2.8,2.8,0,0,0,.9,1A11.6,11.6,0,0,0,31.4,36a14.5,14.5,0,0,0,3.5,1.2c.9.3,1-.3.9-1A4.2,4.2,0,0,0,34,33.5,8.1,8.1,0,0,0,29.6,31.5Z" fill="#f77c00"/><path d="M29.7,31.5a8.1,8.1,0,0,1,4.4,2,4.2,4.2,0,0,1,1.8,2.7c.1.7,0,1.3-.9,1A14.5,14.5,0,0,1,31.5,36a11.6,11.6,0,0,1-2.7-1.8,2.8,2.8,0,0,1-.9-1c-.5-.9-.2-1.5.7-1.6Z" fill="#fff"/><path d="M77.3,168.4c.2,5.1-3.5,7.1-7.3,7.7-6.3.9-10.6-2.1-13.9-7.1a13,13,0,0,1-2.3-5.9c-.4-3.4,1.2-5.8,3.9-7.5a12,12,0,0,1,15,1.8A15.9,15.9,0,0,1,77.3,168.4ZM66.2,156.8c-.6.3-1.3.5-1.6,1a2,2,0,0,0,.5,1.3,61.4,61.4,0,0,0,4.7,4.2,2.6,2.6,0,0,0,1.2.5c1.1.1,1.6-.8,1.2-1.8a8.2,8.2,0,0,0-3.6-4Z" fill="#f77c00"/><path d="M66.2,156.8l2.4,1.2a8.2,8.2,0,0,1,3.6,4c.4,1-.1,1.9-1.2,1.8a2.6,2.6,0,0,1-1.2-.5,61.4,61.4,0,0,1-4.7-4.2,2,2,0,0,1-.5-1.3C64.9,157.3,65.6,157.1,66.2,156.8Z" fill="#fff"/><path d="M99.5,7.4c-.3-3,2.6-6.1,5.6-7.1a7.1,7.1,0,0,1,8.1,3,8.6,8.6,0,0,1-.9,10,5.5,5.5,0,0,1-3.3,1.4,9,9,0,0,1-7.6-2.7A5.4,5.4,0,0,1,99.5,7.4Zm8-4.9c.6.7,1.1,1.4,1.7,2A11.9,11.9,0,0,0,111,6a.8.8,0,0,0,.8.1,1.3,1.3,0,0,0,.3-1.2,4.4,4.4,0,0,0-2.7-2.8C108.4,1.5,107.8,1.8,107.5,2.5Z" fill="#f77c00"/><path d="M107.5,2.5c.3-.7.9-1,1.9-.4a4.4,4.4,0,0,1,2.7,2.8,1.3,1.3,0,0,1-.3,1.2A.8.8,0,0,1,111,6a11.9,11.9,0,0,1-1.8-1.5C108.6,3.9,108.1,3.2,107.5,2.5Z" fill="#fff"/><path d="M26.7,98.9c-.1,2.1-1.5,3.8-3.2,3.7a4.3,4.3,0,0,1-3.8-4,3.3,3.3,0,0,1,3.4-3.2A3.6,3.6,0,0,1,26.7,98.9Zm-1.9-2.3c-1.1.5-1.4,1.3-.9,2s1.1.5,1.3.3S25.5,97.3,24.8,96.6Z" fill="#f77c00"/><path d="M24.8,96.6c.7.7,1,1.5.4,2.3s-1.1,0-1.3-.3S23.7,97.1,24.8,96.6Z" fill="#fff"/><path d="M197.2,66.6a2.9,2.9,0,0,1,.9,3.7,3.1,3.1,0,0,1-4,.7c-1.3-.9-1.5-2.5-.4-4s2-1.3,3.5-.4c-.4,0-.7-.2-1.1-.1s-.6.4-.5.4a3.2,3.2,0,0,0,.8,1.2c.2.2.7,0,1.1,0l-.3-1.2Z" fill="#f77c00"/><path d="M197.2,66.6v.3l.3,1.2c-.4,0-.9.2-1.1,0a3.2,3.2,0,0,1-.8-1.2c-.1,0,.3-.4.5-.4s.7.1,1.1.1Z" fill="#fff"/><path d="M221.7,28.7c-.1,3.3-2.4,6-5,5.8s-6.3-3.3-6.2-6.3a5.5,5.5,0,0,1,5.5-5.3A5.8,5.8,0,0,1,221.7,28.7Zm-2.9-3.8c-1.8.9-2.4,2.2-1.5,3.3s1.8.7,2,.4S219.8,26.1,218.8,24.9Z" fill="#f77c00"/><path d="M218.8,24.9c1,1.2,1.6,2.5.5,3.7s-1.6,0-2-.4S217,25.8,218.8,24.9Z" fill="#fff"/><path d="M11.2,117c-.1,3.3-2.4,6-5.1,5.8s-6.2-3.3-6.1-6.3a5.4,5.4,0,0,1,5.5-5.3A5.8,5.8,0,0,1,11.2,117Zm-3-3.8c-1.7.9-2.3,2.2-1.4,3.3s1.8.7,2,.4S9.3,114.4,8.2,113.2Z" fill="#f77c00"/><path d="M8.2,113.2c1.1,1.2,1.6,2.5.6,3.7s-1.7,0-2-.4S6.5,114.1,8.2,113.2Z" fill="#fff"/></g></g></svg>