<svg xmlns="http://www.w3.org/2000/svg" width="196.28" height="194.93" viewBox="0 0 196.28 194.93"><title>pizza_a</title><g id="Layer_2" data-name="Layer 2"><g id="Layer_1-2" data-name="Layer 1"><path d="M8.82,98.23a.92.92,0,0,1-1.83,0,.92.92,0,1,1,1.83,0Z" style="fill:#caac80"/><path d="M196.15,101c3-51.09-47.29-101-101.87-101S0,44.25,0,98.84s42.73,96.09,97.31,96.09S192.91,155.46,196.15,101Z" style="fill:#9c654d"/><path d="M195.24,101.32c1-16-3.51-31.85-11.81-46a108.52,108.52,0,0,0-45.93-42A97.07,97.07,0,0,0,95.42,3.35c-7.33,0-15.72,0-22.43,1.52C41.69,12,14.87,37.5,7,68.12,4.26,78.76,4,86.33,4,98.23c0,46.68,32.31,85,76.64,93.06,6,1.09,11.9-.62,18.25-.62C152.32,190.67,192.06,154.19,195.24,101.32Z" style="fill:#e7c391"/><path d="M58.06,24s-3.62,5.14-6.94,7-9.36,1.81-13.59,4.23S34.81,44.54,31.79,47,23,53.61,21.22,58.75s-.3,7.57-2.71,10.29-8.15,9.07-5.44,12.7,7.25-1.21,8.15.61-6.34,8.16-7.85,14.51-1.2,16.34,1.82,20.27,6.33,6.66,6.64,10.58,6.94,19.67,10.57,24.51,13,10.28,17.21,10.58,6.94-1.51,8.75.91.91,10,6.34,12.4,7.86,0,10.88,1.51,6,4.24,10.87,4.54,13.89-4.84,17.82-3.93,3.92,4.84,8.45,5.75,5.44-9.38,8.76-8.78,2.11,6.05,5.13,5.45,9.06-11.8,16-13.31,13-4.54,14.5-7.26,0-13.31,3.92-15.12,8.46-.91,10.57-4.24,1.81-13.91,4.53-15.72-3-10.59-.6-12.71,7.55.6,7.85-1.51-3-9.08-2.11-13.92,3-8.47,1.81-14.21-7.86-8.77-7.86-11.19.31-4.54-1.81-7.56-5.13-4.84-6-6.66-1.2-15.73-5.43-19.05-11.17-1.52-15.1-5.75-4.23-6.65-6.64-7.26a22.43,22.43,0,0,0-4.83-.61s-.91-3.32-6.34-4.83-9.06-1.52-9.67-.61-3.62-4.84-10.26-6.65-6.95.3-10.57.91S87.05,14,84,14.6s-3.62,5.14-7.85,5.14-5.74-1.82-10.57-1.21S59,20.64,58.06,24Z" style="fill:#cd8220"/><path d="M60.65,28.53s-3.44,4.87-6.6,6.59-8.89,1.73-12.91,4S38.56,48,35.69,50.33s-8.32,6.32-10,11.19-.29,7.18-2.59,9.76-7.74,8.61-5.16,12,6.89-1.15,7.75.57-6,7.75-7.46,13.78S17,113.17,19.91,116.9s6,6.31,6.31,10,6.6,18.65,10.05,23.24,12.33,9.75,16.35,10,6.6-1.44,8.32.86.86,9.47,6,11.77,7.46,0,10.33,1.43,5.73,4,10.33,4.31,13.2-4.59,16.93-3.74,3.72,4.6,8,5.45,5.17-8.89,8.32-8.31,2,5.73,4.88,5.16S134.4,166,141,164.54s12.33-4.31,13.77-6.89,0-12.63,3.73-14.35,8-.86,10-4,1.72-13.2,4.31-14.91-2.87-10.05-.58-12.06,7.18.58,7.46-1.43-2.87-8.61-2-13.2,2.87-8,1.73-13.49S172,75.87,172,73.58s.28-4.31-1.73-7.18-4.87-4.59-5.73-6.31S163.38,45.17,159.36,42,148.74,40.58,145,36.56s-4-6.31-6.31-6.89a21.6,21.6,0,0,0-4.59-.57s-.86-3.16-6-4.59-8.61-1.44-9.18-.58-3.44-4.59-9.75-6.31-6.6.29-10.05.86-10.9.58-13.77,1.15-3.44,4.88-7.46,4.88-5.45-1.72-10-1.15S61.52,25.37,60.65,28.53Z" style="fill:#f1c31f"/><path d="M36.49,103.7l-2.43,7.91s-.3.6,6.08,6.38,9.13,8.82,12.47,7,3.65-2.44,8.21-6.08,9.73,1.52,6.08-9.13-.6-13.38-9.12-14.9-9.43-.61-11.86,3.65S40.45,100.35,36.49,103.7Z" style="fill:#eeb422"/><path d="M62.34,143.54c-1.11,3,3,6.69,7.61,8.51s5.17.92,10.34,0,5.77-.91,8.81-.3,7.91,1.82,9.43-2.13,2.13-5.47.91-7.6-.3-4-5.47-5.17-13.68-8.21-16.42-9.13-3.65-1.51-7-.3-8.51,2.44-8.21,5.17,8.21,1.52,7.3,5.78S63.25,141.11,62.34,143.54Z" style="fill:#eeb422"/><path d="M41.36,140.5c.91,2.13,8.82,4.25,10,3.35S56,141.41,56,138.06s-1.52-5.47-3.05-5.47-7.9.61-9.12-.61.91-3.65-3.34-1.52-5.48,4-4.57,5.48S41.36,140.5,41.36,140.5Z" style="fill:#eeb422"/><path d="M25.85,97c2.43,3.35,5.17,2.74,7.3.91s5.78-3,3.34-6.69-2.73-4.86-4.25-4.56-4.57,2.43-4.57,2.43Z" style="fill:#eeb422"/><path d="M38.62,70.25c1.57,4.7,7.6,5.47,11.86,4.56s4.87-1.52,6.08-3.35,5.18-2.43,3-7.6-6.09-3.34-5.17-11.55,2.43-11-1.53-10.65-9.42,3.65-9.42,7.61,2.73,9.42,2.73,11.25-3.64,3.95-4.56,3.95S38.32,69.33,38.62,70.25Z" style="fill:#eeb422"/><path d="M28.89,74.51c.91,1.82,1.22,2.73,2.74,1.82s3-4,2.43-5.17A2.13,2.13,0,0,0,31.32,70C30.11,70.25,28.89,74.51,28.89,74.51Z" style="fill:#eeb422"/><path d="M73.29,32.84c-6.47,3.24-4.87,14.3-2.13,16.73s6.39,5.47,9.43,5.78,1.52,2.13,6.39.3,6.69-4.56,8.51-7.9,3-5.78,7-9.13,4-10.94,1.53-12.16-11.86.61-13.39,3.34,1.53,7.61-4.25,7.61-4,3-5.78,0S75.72,31.63,73.29,32.84Z" style="fill:#eeb422"/><path d="M81.2,28.59c1.52,1.52,2.74,3.95,4.86,2.12s5.48-7.9,5.48-7.9-2.74-.31-4,.3-4,4.26-4,4.26Z" style="fill:#eeb422"/><path d="M62.34,58.69c2.89,1,5.48,2.13,6.39,0s-.91-6.08-1.52-7-3-2.13-4-1.83S59,53.52,59,53.52,61.43,58.39,62.34,58.69Z" style="fill:#eeb422"/><path d="M52.61,80.59c0,3,3.65,7.6,9.73,8.21a31.15,31.15,0,0,1,14.6,5.78c2.74,2.13,7.91,4.86,11.56.61S94,86.67,94.28,83.93,94,75.72,92.15,73s-6.69-9.43-11-9.13-8.52,3-9.73,5.17.6,5.78-2.74,6.39-5.78-.61-7.3-.91S52.61,79.37,52.61,80.59Z" style="fill:#eeb422"/><path d="M40.75,87c.61,2.43,2.43,6.08,4.26,5.47a5.07,5.07,0,0,0,3.34-3.65C49,87,50.18,83,48.66,82.41s-1.52-1.82-3.35-1.82-5.17,1.22-5.17,2.13S40.75,87,40.75,87Z" style="fill:#eeb422"/><path d="M100.36,57.48c-1.83,3.34-4,5.77-2.44,9.12s4.87,8.52,7.91,9.73,7,3.35,10.34,1.83,7.6-3.65,9.73-5.78S132.59,62,132.59,62s0-12.47-.3-15.51-5.78-13.69-8.82-13.08-14,7-14,8.52,2.13,7,2.43,9.12,2.43,3.95,0,4.56a24.66,24.66,0,0,1-6.38.31A36.79,36.79,0,0,0,100.36,57.48Z" style="fill:#eeb422"/><path d="M138.67,46.83c0,2.13-2.73,5.48.31,7.91s4,5.47,6.38,6.08,9.43,1.52,11.26,3,3.34,9.73,5.17,6.39-.92-7-2.13-10.64-1.83-8.22-4-10.34.61-2.74-3.95-2.74S138.67,46.83,138.67,46.83Z" style="fill:#eeb422"/><path d="M135,39.54c.6,1.82,6.08,2.73,6.08,2.73a10.27,10.27,0,0,0,1.21-3c0-.91-1.52-3.65-3-3.95s-3.34-.92-3.95.3S135,39.54,135,39.54Z" style="fill:#eeb422"/><path d="M101,49.57c-.31,1.82,4.56,3.65,5.47,3.34s4-3.95,3.65-5.16-.3-2.44-2.13-2.44-4.56.31-4.56.31Z" style="fill:#eeb422"/><path d="M102.79,89.41s-9.73,12.47-9.73,13.68.61,10.65,1.82,11.86a30.85,30.85,0,0,0,13.08,7.3c7,1.83,11,5.47,15.2-.61s6.39-9.12,5.78-14.6-4.25-10.94-3.34-14,.61-9.73-.91-10-6.39-3.34-9.13,1.22-1.52,11-4.86,11.25-4,.91-4.57-1.52S106.44,89.11,102.79,89.41Z" style="fill:#eeb422"/><path d="M75.42,109.78c0,2.13-.61,7.3,2.13,8.21s8.51,2.44,9.43,1.52,1.21-7,.91-9.73,1.52-10.64-2.13-10.64-7.3,1.52-8.82,1.82-2.13-.3-2.13,1.52S75.42,109.78,75.42,109.78Z" style="fill:#eeb422"/><path d="M92.45,126.51c.61,1.21,2.13,4.86,6.08,6.08s11,4.87,11.56,1.83,2.43-4.26,0-6.09-2.74-2.42-6.39-3-6.08-1.82-7.91-.91A21.17,21.17,0,0,0,92.45,126.51Z" style="fill:#eeb422"/><path d="M73.6,161.48c0,.91,1.21,3.65,3.64,5.78s5.17,5.17,11,5.17,12.78.91,14-1.22,2.74-4.26,2.43-7.3-1.82-6.68-4.56-7-7.6.61-10,2.44.3,4.25-5.48,2.12-7.6-3-7.6-3Z" style="fill:#eeb422"/><path d="M110.39,150.54c0,.91-.3,10.33.91,10.94s9.43,2.74,9.43,2.74,9.43.31,11-3.65,5.78-9.12,5.78-12.47,1.52-10-4-11.25-14.29-.61-14.9,1.21.31,10.65.31,10.65,5.47,1.21-1.22,1.52S110.39,150.54,110.39,150.54Z" style="fill:#eeb422"/><path d="M131.68,126.51l9.12,4.56s7.3-3.95,8.22-5.17,3.95-7,3.95-7-3-19.47-3-21-1.83-7.6-4.57-7.6-8.51,2.74-9.12,4.56,2.13,11.56,2.13,13.08,1.52,4-1.21,4.56-4.87,1.52-5.18,3S128.94,125.9,131.68,126.51Z" style="fill:#eeb422"/><path d="M132.59,76.64c-.3,3.65,1.52,8.21,2.74,8.21a42.44,42.44,0,0,0,7.3-1.83c1.82-.61,4.26,2.44,9.73.91s9.43-3,9.43-4.86-5.48-4-7-4.56-4.26-4.87-7-5.48-8.52,1.22-8.82,2.74,5.78,4.56,0,4.26S132.59,76.64,132.59,76.64Z" style="fill:#eeb422"/><path d="M155.1,93.06s-1.22,7.9,1.52,9.73,3.65,2.73,5.47,2.73,4.26-.6,5.17-1.52a27.52,27.52,0,0,0,3.65-6.69c.61-1.82,6.08-10,4.56-11.85s-7-3.35-7.91-1.22-1.21,7-2.12,7.3-5.48.91-5.48.91S156.31,89.1,155.1,93.06Z" style="fill:#eeb422"/><path d="M159.05,115.86c-.2,1.21-5.47,15.82-4.56,16.73s2.73,3.95,4.86,2.13,1.52-2.43,4-4.56a8.78,8.78,0,0,0,3.34-7.3c0-3,1.52-7.6-.3-8.21S159.36,114,159.05,115.86Z" style="fill:#eeb422"/><path d="M144.45,141.11c0,2.12-2.43,9.12-1.21,9.43s1.82,3.64,4.56,1.51,6.08-5.17,5.47-9.12-4.56-8.21-4.56-8.21-5.47-.61-5.78,2.43S144.45,141.11,144.45,141.11Z" style="fill:#eeb422"/><path d="M101.88,81.81c-.46.79,3,5.47,4.56,5.17a4.26,4.26,0,0,0,2.43-2.13l.31-3.35S103.09,79.68,101.88,81.81Z" style="fill:#eeb422"/><path d="M49,152.05c.86,1.3,6.69,6.69,7.91,4.26S59,151.75,59,150.54s0-2.44-1.52-2.44S48.35,151.14,49,152.05Z" style="fill:#eeb422"/><path d="M53.83,172.12a1.52,1.52,0,1,1-1.52-1.52A1.52,1.52,0,0,1,53.83,172.12Z" style="fill:#dbba8b"/><path d="M57.17,177A1.22,1.22,0,1,1,56,175.78,1.22,1.22,0,0,1,57.17,177Z" style="fill:#caac80"/><path d="M66.3,182.46a1.22,1.22,0,1,1-1.22-1.21A1.22,1.22,0,0,1,66.3,182.46Z" style="fill:#caac80"/><path d="M88.19,184.9a1.83,1.83,0,1,1-1.82-1.83A1.81,1.81,0,0,1,88.19,184.9Z" style="fill:#caac80"/><path d="M23.72,142.32a1.83,1.83,0,1,1-1.82-1.82A1.83,1.83,0,0,1,23.72,142.32Z" style="fill:#caac80"/><path d="M24.63,147.49a.91.91,0,1,1-.91-.91A.92.92,0,0,1,24.63,147.49Z" style="fill:#caac80"/><path d="M34.36,160a.91.91,0,1,1-1.82,0,.91.91,0,0,1,1.82,0Z" style="fill:#caac80"/><path d="M13.38,68.12a.91.91,0,1,1-.91-.91A.91.91,0,0,1,13.38,68.12Z" style="fill:#caac80"/><path d="M12.77,72.38a1.52,1.52,0,1,1-1.52-1.52A1.52,1.52,0,0,1,12.77,72.38Z" style="fill:#caac80"/><path d="M10.34,89.41v0Z" style="fill:#caac80"/><circle cx="49.57" cy="22.2" r="1.52" style="fill:#caac80"/><path d="M49.27,25.54a1.22,1.22,0,1,1-1.22-1.21A1.22,1.22,0,0,1,49.27,25.54Z" style="fill:#caac80"/><path d="M35.58,33.45a.91.91,0,1,1-.91-.91A.91.91,0,0,1,35.58,33.45Z" style="fill:#caac80"/><path d="M26.16,45.31a1.22,1.22,0,1,1-2.44,0,1.22,1.22,0,0,1,2.44,0Z" style="fill:#caac80"/><path d="M28.28,40.14a.91.91,0,1,1-.91-.91A.91.91,0,0,1,28.28,40.14Z" style="fill:#caac80"/><path d="M76,10.64A2.13,2.13,0,1,1,73.9,8.52,2.13,2.13,0,0,1,76,10.64Z" style="fill:#caac80"/><path d="M79.37,10a.91.91,0,1,1-.91-.92A.91.91,0,0,1,79.37,10Z" style="fill:#caac80"/><path d="M76.33,16.42a.61.61,0,1,1-.61-.61A.61.61,0,0,1,76.33,16.42Z" style="fill:#caac80"/><path d="M118.91,10.34a.61.61,0,0,1-.61.61.61.61,0,0,1,0-1.22A.61.61,0,0,1,118.91,10.34Z" style="fill:#caac80"/><path d="M120.73,13.08a.91.91,0,1,1-.91-.92A.91.91,0,0,1,120.73,13.08Z" style="fill:#caac80"/><path d="M95.8,7.3a1.22,1.22,0,1,1-1.22-1.22A1.22,1.22,0,0,1,95.8,7.3Z" style="fill:#caac80"/><path d="M156,30.41a1.52,1.52,0,1,1-1.52-1.52A1.52,1.52,0,0,1,156,30.41Z" style="fill:#caac80"/><path d="M158.75,33.15a.61.61,0,1,1-1.22,0,.61.61,0,1,1,1.22,0Z" style="fill:#caac80"/><path d="M163.92,35.28a.61.61,0,0,1-.61.6.61.61,0,1,1,0-1.21A.61.61,0,0,1,163.92,35.28Z" style="fill:#caac80"/><path d="M176.08,58.69a1.83,1.83,0,1,1-1.82-1.82A1.83,1.83,0,0,1,176.08,58.69Z" style="fill:#caac80"/><path d="M184.6,60.82a1.22,1.22,0,1,1-1.22-1.21A1.22,1.22,0,0,1,184.6,60.82Z" style="fill:#caac80"/><path d="M181.25,66.3A1.22,1.22,0,1,1,180,65.08,1.22,1.22,0,0,1,181.25,66.3Z" style="fill:#caac80"/><path d="M188.55,97.62a1.22,1.22,0,1,1-1.22-1.22A1.22,1.22,0,0,1,188.55,97.62Z" style="fill:#caac80"/><path d="M186.12,118.6v0Z" style="fill:#caac80"/><path d="M184.29,123.47a1.52,1.52,0,1,1-1.52-1.52A1.52,1.52,0,0,1,184.29,123.47Z" style="fill:#caac80"/><path d="M181.25,128v0Z" style="fill:#caac80"/><path d="M180.34,141.41a1.83,1.83,0,1,1-1.83-1.82A1.82,1.82,0,0,1,180.34,141.41Z" style="fill:#caac80"/><path d="M174.26,145.67a1.22,1.22,0,1,1-1.22-1.22A1.22,1.22,0,0,1,174.26,145.67Z" style="fill:#caac80"/><path d="M167.26,155.7a1.83,1.83,0,1,1-1.82-1.82A1.82,1.82,0,0,1,167.26,155.7Z" style="fill:#caac80"/><path d="M159.66,165.13a.61.61,0,1,1-.61-.61A.61.61,0,0,1,159.66,165.13Z" style="fill:#caac80"/><path d="M153.27,168.48a1.52,1.52,0,1,1-1.52-1.53A1.52,1.52,0,0,1,153.27,168.48Z" style="fill:#caac80"/><path d="M146.28,174.25v0Z" style="fill:#caac80"/><path d="M94.28,185.51a1.22,1.22,0,1,1-1.22-1.22A1.22,1.22,0,0,1,94.28,185.51Z" style="fill:#caac80"/><path d="M100.05,186.72a1.52,1.52,0,1,1-1.52-1.52A1.53,1.53,0,0,1,100.05,186.72Z" style="fill:#caac80"/><path d="M125,181.86a.61.61,0,0,1-1.22,0,.61.61,0,1,1,1.22,0Z" style="fill:#caac80"/><path d="M79.07,168.48l10.64-3.35S81.2,154.79,87,153.58s6.39,2.73,5.78,4.56-1.22,1.52-1.22,1.52,10.65,2.13,7.91-5.48-13.68-6.69-24.32-1.82-10,17.34-4.87,17.34,6.08-6.39,6.08-6.39-2.13,2.74-4.26.91,0-6.08,3.65-6.39S79.07,168.48,79.07,168.48Z" style="fill:#957f5f"/><path d="M79.07,167l10.64-3.35S81.2,153.27,87,152.06s8.82.91,8.21,2.73-3.64,3.35-3.64,3.35,10.64,2.13,7.9-5.48S85.76,146,75.12,150.84s-10,17.33-4.87,17.33,6.08-6.39,6.08-6.39-2.13,2.75-4.26.92,0-6.09,3.65-6.39S79.07,167,79.07,167Z" style="fill:#caac80"/><path d="M125,82.11l10.64-3.34s-8.51-10.34-2.74-11.56,6.39,2.73,5.78,4.56-1.21,1.52-1.21,1.52,10.64,2.13,7.9-5.47S131.68,61.13,121,66s-10,17.34-4.87,17.34,6.08-6.39,6.08-6.39-2.13,2.74-4.26.91,0-6.08,3.65-6.38S125,82.11,125,82.11Z" style="fill:#957f5f"/><path d="M125,80.59l10.64-3.35s-8.51-10.34-2.74-11.55,8.82.91,8.22,2.73-3.65,3.35-3.65,3.35,10.64,2.13,7.9-5.47S131.68,59.61,121,64.47s-10,17.34-4.87,17.34,6.08-6.39,6.08-6.39-2.13,2.74-4.26.91,0-6.08,3.65-6.38S125,80.59,125,80.59Z" style="fill:#caac80"/><path d="M45,128.45l10.3,4.27s.12-13.39,5.33-10.61,3.14,6.2,1.5,7.21-1.91.38-1.91.38,6.79,8.47,9.57.88-6.19-13.92-17.47-17-18.83,6.84-14.86,10.16,8.76-1,8.76-1-3.39.73-3.85-2,3.91-4.66,6.9-2.55S45,128.45,45,128.45Z" style="fill:#957f5f"/><path d="M46,127.28l10.31,4.28s.12-13.4,5.32-10.62,6.18,6.37,4.54,7.37-4.94.22-4.94.22,6.78,8.47,9.57.89-6.19-13.92-17.47-17-18.83,6.84-14.87,10.16,8.77-1,8.77-1-3.39.73-3.85-2,3.91-4.67,6.9-2.55S46,127.28,46,127.28Z" style="fill:#caac80"/><path d="M152.27,125.11l10.63-3.4s-8.57-10.3-2.8-11.54,6.4,2.7,5.8,4.53-1.21,1.53-1.21,1.53,10.66,2.07,7.88-5.52-13.72-6.62-24.33-1.7-10,17.38-4.79,17.36,6.06-6.42,6.06-6.42-2.12,2.75-4.26.93,0-6.08,3.62-6.4S152.27,125.11,152.27,125.11Z" style="fill:#957f5f"/><path d="M152.26,123.59l10.63-3.4s-8.57-10.3-2.8-11.54,8.83.86,8.23,2.69-3.63,3.36-3.63,3.36,10.65,2.08,7.88-5.51-13.72-6.62-24.34-1.7-9.95,17.38-4.78,17.36,6.05-6.42,6.05-6.42-2.12,2.74-4.25.94,0-6.09,3.61-6.41S152.26,123.59,152.26,123.59Z" style="fill:#caac80"/><path d="M78,102.32l10.3,4.27S88.42,93.2,93.63,96s3.14,6.19,1.5,7.2-1.92.39-1.92.39,6.8,8.46,9.58.88-6.19-13.92-17.47-17S66.49,94.26,70.46,97.58s8.76-1,8.76-1-3.39.73-3.85-2,3.91-4.66,6.9-2.55S78,102.32,78,102.32Z" style="fill:#957f5f"/><path d="M79,101.15l10.31,4.27S89.4,92,94.61,94.81s6.17,6.36,4.53,7.37-5,.22-5,.22,6.79,8.47,9.58.88-6.19-13.91-17.47-17S67.47,93.1,71.43,96.42s8.77-1,8.77-1-3.39.73-3.85-2,3.91-4.67,6.9-2.56S79,101.15,79,101.15Z" style="fill:#caac80"/><path d="M80.56,50l10.31,4.27S91,40.87,96.19,43.65s3.14,6.2,1.5,7.21-1.91.38-1.91.38,6.79,8.47,9.57.88-6.19-13.92-17.47-17S69.05,41.93,73,45.26s8.76-1,8.76-1-3.39.73-3.85-2,3.91-4.66,6.9-2.55S80.56,50,80.56,50Z" style="fill:#957f5f"/><path d="M81.54,48.82l10.3,4.28S92,39.7,97.17,42.48s6.17,6.36,4.53,7.37-4.94.22-4.94.22,6.78,8.47,9.57.89-6.19-13.92-17.47-17S70,40.77,74,44.09s8.77-1,8.77-1-3.39.73-3.85-2,3.91-4.66,6.9-2.55S81.54,48.82,81.54,48.82Z" style="fill:#caac80"/><path d="M48.41,64l-9.8,5.33S49,77.83,43.51,80.13,36.72,78.68,37,76.77s.9-1.73.9-1.73S27,75,31.16,81.93s14.71,3.94,24.23-2.88,6.52-18.94,1.44-17.94-4.74,7.43-4.74,7.43,1.56-3.09,4-1.71,1.17,6-2.35,7S48.41,64,48.41,64Z" style="fill:#957f5f"/><path d="M48.7,65.49l-9.8,5.32s10.34,8.51,4.91,10.82-8.84.8-8.59-1.11,2.94-4,2.94-4-10.85-.05-6.71,6.88,14.72,3.94,24.23-2.88S62.2,61.61,57.12,62.6,52.38,70,52.38,70s1.57-3.09,4-1.71,1.16,6-2.36,7S48.7,65.49,48.7,65.49Z" style="fill:#caac80"/><path d="M127.48,123.91l-9.8,5.32s10.34,8.51,4.9,10.81-6.79-1.45-6.54-3.36.9-1.73.9-1.73-10.86,0-6.71,6.89,14.71,3.94,24.23-2.88S141,120,135.91,121s-4.75,7.43-4.75,7.43,1.56-3.09,4-1.71,1.17,6-2.35,7S127.48,123.91,127.48,123.91Z" style="fill:#957f5f"/><path d="M127.77,125.4l-9.8,5.33s10.34,8.5,4.9,10.81-8.83.8-8.58-1.11,2.94-4,2.94-4-10.85,0-6.71,6.9,14.72,3.93,24.23-2.88,6.52-19,1.45-18-4.75,7.44-4.75,7.44,1.57-3.1,4-1.72,1.16,6-2.36,7S127.77,125.4,127.77,125.4Z" style="fill:#caac80"/><path d="M48.35,101.57a10.95,10.95,0,1,1-11-10.95A10.95,10.95,0,0,1,48.35,101.57Z" style="fill:#c65128"/><path d="M33.76,96.4a1.52,1.52,0,1,1-1.52-1.52A1.52,1.52,0,0,1,33.76,96.4Z" style="fill:#a6431e"/><path d="M33.15,103.09a1.52,1.52,0,1,1-1.52-1.52A1.53,1.53,0,0,1,33.15,103.09Z" style="fill:#ca8b28"/><path d="M38.32,107a1.52,1.52,0,1,1-1.52-1.52A1.52,1.52,0,0,1,38.32,107Z" style="fill:#a6431e"/><path d="M45.62,103.4a1.52,1.52,0,1,1-1.52-1.52A1.53,1.53,0,0,1,45.62,103.4Z" style="fill:#ca8b28"/><path d="M42.58,96.1a1.53,1.53,0,1,1-1.52-1.52A1.53,1.53,0,0,1,42.58,96.1Z" style="fill:#a6431e"/><path d="M38.62,101.27a1.52,1.52,0,1,1-1.52-1.52A1.52,1.52,0,0,1,38.62,101.27Z" style="fill:#ca8b28"/><path d="M66.3,145.67a11,11,0,1,1-10.95-10.95A10.94,10.94,0,0,1,66.3,145.67Z" style="fill:#c65128"/><circle cx="50.18" cy="140.5" r="1.52" style="fill:#a6431e"/><path d="M51.09,147.19a1.52,1.52,0,1,1-1.52-1.52A1.52,1.52,0,0,1,51.09,147.19Z" style="fill:#ca8b28"/><path d="M56.26,151.14a1.52,1.52,0,1,1-1.52-1.52A1.52,1.52,0,0,1,56.26,151.14Z" style="fill:#a6431e"/><path d="M63.56,147.49A1.52,1.52,0,1,1,62,146,1.52,1.52,0,0,1,63.56,147.49Z" style="fill:#ca8b28"/><path d="M60.52,140.19A1.52,1.52,0,1,1,59,138.67,1.52,1.52,0,0,1,60.52,140.19Z" style="fill:#a6431e"/><path d="M56.56,145.36a1.52,1.52,0,1,1-1.51-1.51A1.52,1.52,0,0,1,56.56,145.36Z" style="fill:#ca8b28"/><path d="M66.6,48.66A10.95,10.95,0,1,1,55.65,37.71,10.95,10.95,0,0,1,66.6,48.66Z" style="fill:#c65128"/><path d="M52,43.49A1.52,1.52,0,1,1,50.48,42,1.52,1.52,0,0,1,52,43.49Z" style="fill:#a6431e"/><path d="M51.4,50.18a1.53,1.53,0,1,1-1.53-1.52A1.53,1.53,0,0,1,51.4,50.18Z" style="fill:#ca8b28"/><path d="M56.56,54.13a1.52,1.52,0,1,1-1.51-1.52A1.52,1.52,0,0,1,56.56,54.13Z" style="fill:#a6431e"/><path d="M63.86,50.48A1.52,1.52,0,1,1,62.34,49,1.52,1.52,0,0,1,63.86,50.48Z" style="fill:#ca8b28"/><path d="M60.82,43.19a1.52,1.52,0,1,1-1.52-1.53A1.52,1.52,0,0,1,60.82,43.19Z" style="fill:#a6431e"/><path d="M56.87,48.36a1.52,1.52,0,1,1-1.52-1.53A1.52,1.52,0,0,1,56.87,48.36Z" style="fill:#ca8b28"/><path d="M135.94,44.4a10.95,10.95,0,1,1-11-10.95A11,11,0,0,1,135.94,44.4Z" style="fill:#c65128"/><path d="M121.34,39.23a1.52,1.52,0,1,1-1.52-1.52A1.52,1.52,0,0,1,121.34,39.23Z" style="fill:#a6431e"/><path d="M120.73,45.92a1.52,1.52,0,1,1-1.52-1.52A1.52,1.52,0,0,1,120.73,45.92Z" style="fill:#ca8b28"/><path d="M125.9,49.87a1.52,1.52,0,1,1-1.52-1.51A1.52,1.52,0,0,1,125.9,49.87Z" style="fill:#a6431e"/><path d="M133.2,46.23a1.52,1.52,0,1,1-1.52-1.53A1.53,1.53,0,0,1,133.2,46.23Z" style="fill:#ca8b28"/><path d="M130.16,38.93a1.52,1.52,0,1,1-1.52-1.52A1.51,1.51,0,0,1,130.16,38.93Z" style="fill:#a6431e"/><path d="M126.21,44.1a1.53,1.53,0,1,1-1.52-1.53A1.52,1.52,0,0,1,126.21,44.1Z" style="fill:#ca8b28"/><path d="M133.2,103.09a11,11,0,1,1-10.95-10.94A10.95,10.95,0,0,1,133.2,103.09Z" style="fill:#c65128"/><path d="M118.6,97.92a1.52,1.52,0,1,1-1.52-1.52A1.52,1.52,0,0,1,118.6,97.92Z" style="fill:#a6431e"/><path d="M118,104.62a1.52,1.52,0,1,1-1.52-1.53A1.52,1.52,0,0,1,118,104.62Z" style="fill:#ca8b28"/><path d="M123.16,108.57a1.52,1.52,0,1,1-1.52-1.53A1.52,1.52,0,0,1,123.16,108.57Z" style="fill:#a6431e"/><path d="M130.46,104.92a1.52,1.52,0,1,1-1.52-1.52A1.52,1.52,0,0,1,130.46,104.92Z" style="fill:#ca8b28"/><path d="M127.42,97.62a1.52,1.52,0,1,1-1.52-1.52A1.52,1.52,0,0,1,127.42,97.62Z" style="fill:#a6431e"/><path d="M123.47,102.79a1.52,1.52,0,1,1-1.52-1.52A1.52,1.52,0,0,1,123.47,102.79Z" style="fill:#ca8b28"/><path d="M132.29,160.87a10.95,10.95,0,1,1-10.95-11A10.95,10.95,0,0,1,132.29,160.87Z" style="fill:#c65128"/><path d="M117.69,155.7a1.52,1.52,0,1,1-1.52-1.52A1.53,1.53,0,0,1,117.69,155.7Z" style="fill:#a6431e"/><path d="M117.08,162.39a1.52,1.52,0,1,1-1.52-1.52A1.52,1.52,0,0,1,117.08,162.39Z" style="fill:#ca8b28"/><path d="M122.25,166.35a1.52,1.52,0,1,1-1.52-1.52A1.52,1.52,0,0,1,122.25,166.35Z" style="fill:#a6431e"/><path d="M129.55,162.7a1.52,1.52,0,1,1-1.52-1.52A1.52,1.52,0,0,1,129.55,162.7Z" style="fill:#ca8b28"/><path d="M126.51,155.4a1.52,1.52,0,1,1-1.52-1.52A1.52,1.52,0,0,1,126.51,155.4Z" style="fill:#a6431e"/><path d="M122.56,160.57a1.52,1.52,0,1,1-1.52-1.52A1.52,1.52,0,0,1,122.56,160.57Z" style="fill:#ca8b28"/><path d="M170.91,92.45A10.95,10.95,0,1,1,160,81.5,10.95,10.95,0,0,1,170.91,92.45Z" style="fill:#c65128"/><path d="M156.31,87.28a1.52,1.52,0,1,1-1.52-1.52A1.52,1.52,0,0,1,156.31,87.28Z" style="fill:#a6431e"/><path d="M155.71,94a1.53,1.53,0,1,1-1.53-1.52A1.53,1.53,0,0,1,155.71,94Z" style="fill:#ca8b28"/><path d="M160.87,97.92a1.52,1.52,0,1,1-1.51-1.52A1.52,1.52,0,0,1,160.87,97.92Z" style="fill:#a6431e"/><path d="M168.17,94.27a1.52,1.52,0,1,1-1.52-1.52A1.53,1.53,0,0,1,168.17,94.27Z" style="fill:#ca8b28"/><path d="M165.13,87a1.52,1.52,0,1,1-1.52-1.52A1.52,1.52,0,0,1,165.13,87Z" style="fill:#a6431e"/><path d="M161.18,92.15a1.52,1.52,0,1,1-1.52-1.53A1.52,1.52,0,0,1,161.18,92.15Z" style="fill:#ca8b28"/><path d="M99.75,127.42a11,11,0,1,1-11-10.94A10.95,10.95,0,0,1,99.75,127.42Z" style="fill:#c65128"/><path d="M85.15,122.25a1.52,1.52,0,1,1-1.52-1.52A1.52,1.52,0,0,1,85.15,122.25Z" style="fill:#a6431e"/><path d="M84.54,128.94A1.52,1.52,0,1,1,83,127.42,1.52,1.52,0,0,1,84.54,128.94Z" style="fill:#ca8b28"/><path d="M89.71,132.89a1.52,1.52,0,1,1-1.52-1.52A1.52,1.52,0,0,1,89.71,132.89Z" style="fill:#a6431e"/><path d="M97,129.25a1.52,1.52,0,1,1-1.52-1.53A1.52,1.52,0,0,1,97,129.25Z" style="fill:#ca8b28"/><path d="M94,122a1.52,1.52,0,1,1-1.52-1.52A1.52,1.52,0,0,1,94,122Z" style="fill:#a6431e"/><path d="M90,127.12a1.52,1.52,0,1,1-1.51-1.52A1.52,1.52,0,0,1,90,127.12Z" style="fill:#ca8b28"/><path d="M100.05,73.59a10.95,10.95,0,1,1-11-10.94A10.95,10.95,0,0,1,100.05,73.59Z" style="fill:#c65128"/><path d="M85.46,68.43a1.52,1.52,0,1,1-1.52-1.53A1.53,1.53,0,0,1,85.46,68.43Z" style="fill:#a6431e"/><path d="M84.85,75.12a1.52,1.52,0,1,1-1.52-1.53A1.52,1.52,0,0,1,84.85,75.12Z" style="fill:#ca8b28"/><path d="M90,79.07a1.52,1.52,0,1,1-1.52-1.52A1.52,1.52,0,0,1,90,79.07Z" style="fill:#a6431e"/><path d="M97.31,75.42A1.52,1.52,0,1,1,95.8,73.9,1.52,1.52,0,0,1,97.31,75.42Z" style="fill:#ca8b28"/><path d="M94.28,68.12a1.53,1.53,0,1,1-1.52-1.52A1.53,1.53,0,0,1,94.28,68.12Z" style="fill:#a6431e"/><path d="M90.32,73.29a1.52,1.52,0,1,1-1.52-1.52A1.52,1.52,0,0,1,90.32,73.29Z" style="fill:#ca8b28"/><path d="M52,93.06a7,7,0,1,0,7,7A7,7,0,0,0,52,93.06Zm0,10.64a3.65,3.65,0,1,1,3.65-3.65A3.65,3.65,0,0,1,52,103.7Z" style="fill:#535b41"/><path d="M76.64,44.7a7,7,0,1,0,7,7A7,7,0,0,0,76.64,44.7Zm0,10.65a3.65,3.65,0,1,1,3.65-3.65A3.65,3.65,0,0,1,76.64,55.35Z" style="fill:#535b41"/><path d="M113.44,52a7,7,0,1,0,7,7A7,7,0,0,0,113.44,52Zm0,10.65A3.65,3.65,0,1,1,117.08,59,3.65,3.65,0,0,1,113.44,62.65Z" style="fill:#535b41"/><path d="M145.37,73a7,7,0,1,0,7,7A7,7,0,0,0,145.37,73Zm0,10.64A3.65,3.65,0,1,1,149,80,3.64,3.64,0,0,1,145.37,83.63Z" style="fill:#535b41"/><path d="M133.81,110.39a7,7,0,1,0,7,7A7,7,0,0,0,133.81,110.39Zm0,10.64a3.65,3.65,0,1,1,3.65-3.65A3.65,3.65,0,0,1,133.81,121Z" style="fill:#535b41"/><path d="M142.93,143.54a7,7,0,1,0,7,7A7,7,0,0,0,142.93,143.54Zm0,10.64a3.65,3.65,0,1,1,3.65-3.64A3.65,3.65,0,0,1,142.93,154.18Z" style="fill:#535b41"/><path d="M89.71,142a7,7,0,1,0,7,7A7,7,0,0,0,89.71,142Zm0,10.64A3.65,3.65,0,1,1,93.36,149,3.65,3.65,0,0,1,89.71,152.66Z" style="fill:#535b41"/><path d="M97,87a7,7,0,1,0,7,7A7,7,0,0,0,97,87Zm0,10.64A3.65,3.65,0,1,1,100.66,94,3.65,3.65,0,0,1,97,97.62Z" style="fill:#535b41"/><polygon points="65.38 111.91 62.95 105.22 69.34 105.22 69.94 111.91 65.38 111.91" style="fill:#079247"/><polygon points="70.86 59.91 70.25 67.21 75.42 67.81 78.16 60.82 70.86 59.91" style="fill:#079247"/><polygon points="100.97 139.89 97.62 144.45 102.48 150.54 107.05 146.28 100.97 139.89" style="fill:#079247"/><polygon points="137.76 92.45 145.06 86.37 146.28 92.75 141.11 96.1 137.76 92.45" style="fill:#079247"/><polygon points="152.06 62.34 152.06 72.68 157.23 72.07 158.14 64.47 152.06 62.34" style="fill:#079247"/><polygon points="149.32 136.85 142.63 142.93 149.62 145.97 154.18 139.28 149.32 136.85" style="fill:#079247"/><polygon points="34.97 128.94 42.88 134.72 40.14 138.37 33.15 135.33 34.97 128.94" style="fill:#079247"/><polygon points="67.21 76.64 75.72 78.16 75.11 82.42 67.82 81.5 67.21 76.64" style="fill:#079247"/><polygon points="35.58 61.73 41.97 53.83 45.62 58.09 41.66 64.47 35.58 61.73" style="fill:#079247"/><polygon points="67.51 30.41 69.03 36.49 73.9 34.36 73.29 29.19 67.51 30.41" style="fill:#079247"/><polygon points="95.49 28.28 104.61 31.32 106.44 26.15 98.23 24.02 95.49 28.28" style="fill:#079247"/><polygon points="104.92 64.17 104.61 71.77 109.17 71.77 111.3 64.17 104.92 64.17" style="fill:#079247"/><polygon points="116.17 55.04 116.48 58.99 122.86 60.82 124.08 56.56 116.17 55.04" style="fill:#079247"/><polygon points="148.1 47.14 141.72 54.44 145.37 56.26 152.36 52.61 148.1 47.14" style="fill:#079247"/><polygon points="103.7 86.06 114.34 84.85 113.13 90.93 104.61 91.54 103.7 86.06" style="fill:#079247"/><polygon points="129.25 85.76 129.25 89.41 133.81 90.02 135.33 84.85 129.25 85.76" style="fill:#079247"/><polygon points="104.92 107.35 102.18 116.17 107.05 117.39 109.78 114.35 104.92 107.35" style="fill:#079247"/><polygon points="76.94 114.65 84.24 110.69 85.46 114.35 78.77 117.69 76.94 114.65" style="fill:#079247"/><polygon points="69.64 138.37 77.55 140.8 76.64 143.85 69.34 143.85 69.64 138.37" style="fill:#079247"/><polygon points="96.4 167.26 105.22 162.09 106.13 168.17 100.05 170.91 96.4 167.26" style="fill:#079247"/><polygon points="136.54 149.62 143.24 153.27 141.41 157.53 133.81 154.18 136.54 149.62" style="fill:#079247"/><polygon points="157.23 130.47 164.52 128.94 165.13 132.89 159.35 134.72 157.23 130.47" style="fill:#079247"/><polygon points="115.56 120.12 123.16 117.69 124.38 121.34 119.52 124.68 115.56 120.12" style="fill:#079247"/><polygon points="103.7 125.29 111.91 124.99 112.22 129.86 106.44 130.77 103.7 125.29" style="fill:#079247"/><polygon points="138.37 104.31 145.97 100.05 147.49 103.4 140.19 107.65 138.37 104.31" style="fill:#079247"/><polygon points="163.61 76.33 170.91 76.03 170.91 79.68 166.04 80.89 163.61 76.33" style="fill:#079247"/><polygon points="24.02 111.91 28.89 114.65 27.67 118.3 23.11 115.56 24.02 111.91" style="fill:#079247"/></g></g></svg>