<svg xmlns="http://www.w3.org/2000/svg" width="202.24" height="168.19" viewBox="0 0 202.24 168.19"><title>shoes_c</title><g id="Layer_2" data-name="Layer 2"><g id="Layer_1-2" data-name="Layer 1"><path d="M142.76,28.92a21.58,21.58,0,0,0-.32-3.07c-.28-1.31-1.58-5.32-1.44-6.25s.76-5.93,0-8.27-2.54-6.26-5.35-7.64c-2.12-1-7.12-.55-9.78.57C122.81,5.54,112,8.81,110,9.62a80.5,80.5,0,0,1-8.57,2A45.34,45.34,0,0,0,97.63,5c-1.45-2-4.5-5-5.91-5-4-.12-6.25,3.5-6.25,3.5L82.66,6.25s-2-1.58-3.85-.75C77.62,6,64.23,17.74,62.93,19s-10.2,9.56-11.3,10.51S41.34,37.6,40.75,38.31a33.14,33.14,0,0,1-4.51,4.55c-1.23.77-4.1,1.92-5.07,3s-1.61,3.25-2.63,3.73-4.77,2.13-4.77,2.13L41.94,81.55l83.87-29,17.33-11.5-.26-10.84Z" style="fill:#2c57a7"/><path d="M43.13,77.91S37.34,60.66,32.61,56.29a30.87,30.87,0,0,0-8.94-6S-.31,58.58,0,74.2c.26,12.5,5.41,25,15.53,28.42s35.13,2,49.4-4.06a131.58,131.58,0,0,0,27.54-16c4.34-3.47,21.71-10,25.54-11.2s16.2-4.75,19.54-6.23c4.27-1.89,7.2-4.47,8.22-8s1-14,.6-17.54c-.06-.56-1.91-7.28-2.7-8.36l-.79-1.07s2.22,6.39-5.78,12.94c-6.72,5.49-24.82,9.65-29.27,10.63C97.14,56.12,81.4,64.52,77.38,66.93s-16.95,6.95-18.69,8-4.49,2.33-5.58,2.16-2.25-.82-3.72-.56S43.13,77.91,43.13,77.91Z" style="fill:#dee9e2"/><path d="M101.79,13.14s10.95-2,15.5-3.67,13.13-4.83,15.57-4.15,3.26,4.63,2.72,6.14-3.58,12-10.4,14-11.28,0-13.21-.9c-1.65-.8-5.82-4.54-7-5.5s-2.38-2.12-2.38-2.12Z" style="fill:#081f53"/><path d="M140.84,20.68S132.75,38,122,39.1c-14.22,1.49-16.42-7-23.4-7.06-4.08-.07-7.28-.16-16.88,9.65s-12.57,11.59-13,15.5c-.25,2.18-.2,9.66.92,12.69" style="fill:none;stroke:#fff;stroke-width:0.377874px;stroke-dasharray:0.755744993686676"/><path d="M124.92,36.53s-3.83,1.16-10.65-1c-4-1.26-9.87-6.45-16-6.89-7.85-.56-20.76,13.2-21.19,13.93s-9.64,9.5-10.36,12.72c-1,4.46-.5,12.64.74,16" style="fill:none;stroke:#fff;stroke-width:0.377874px;stroke-dasharray:0.755744993686676"/><path d="M82.63,63.76s-9.87-6.11-20-8.61A78.12,78.12,0,0,0,49,52.76l5.77,23.6" style="fill:none;stroke:#fff;stroke-width:0.377874px;stroke-dasharray:0.755744993686676"/><path d="M80.22,65s-12.09-6.13-18.44-7.26a54.56,54.56,0,0,0-9.2-1.08l4.57,19" style="fill:none;stroke:#fff;stroke-width:0.377874px;stroke-dasharray:0.755744993686676"/><path d="M101.26,15.6s-11.08-5.5-19.08.11S48.83,48.91,48.09,51.66s.78,18.87,2,24.3" style="fill:none;stroke:#fff;stroke-width:0.377874px;stroke-dasharray:0.755744993686676"/><path d="M81.84,6.44a6.5,6.5,0,0,0-3.65,1C76.42,8.63,41.34,39.66,40.3,41.26S34,45.37,32.41,47.2" style="fill:none;stroke:#fff;stroke-width:0.377874px;stroke-dasharray:0.755744993686676"/><path d="M130.63,53.37c-4.31,1.3-11.22,3.43-17.5,5.37s-11.93,3.72-13.65,4.32a28.83,28.83,0,0,0-3.71,1.77C91,67.41,84,71.77,82.14,73a35.2,35.2,0,0,1-10.51,4l-.44-2.22.24-.05a32.84,32.84,0,0,0,9.49-3.65c1.29-.82,4.81-3,8.46-5.19,1.82-1.08,3.68-2.15,5.32-3a30.46,30.46,0,0,1,4-1.93c1.8-.62,7.43-2.38,13.72-4.33s13.2-4.07,17.51-5.38a30.57,30.57,0,0,0,12.38-7.44,32.86,32.86,0,0,0,3.05-3.46c.34-.44.58-.8.75-1V39.1l.44,3.25S142.58,49.72,130.63,53.37Z" style="fill:#da3b27"/><path d="M146,52.38c-2,2.38-4.49,5.54-8.09,7.54a24.61,24.61,0,0,1-2.64,1.17c-3.9,1.54-10.64,3.74-16.88,5.74l-8.52,2.74c-2.42.78-4.3,1.41-5.12,1.74a45.65,45.65,0,0,0-4.32,2.12c-2.74,1.48-6.1,3.43-9.08,5.25s-5.58,3.53-6.74,4.44a31.07,31.07,0,0,1-12.09,5.45l-.41-2.23h0a29.08,29.08,0,0,0,11-5c.89-.71,2.34-1.69,4.11-2.82,2.65-1.7,6-3.71,9.08-5.46A72.9,72.9,0,0,1,104,69.2c1.08-.43,3.37-1.18,6.33-2.14,4.42-1.42,10.29-3.27,15.46-5,2.58-.86,5-1.69,7-2.41a34.7,34.7,0,0,0,4.15-1.73,23.24,23.24,0,0,0,7.34-6.87,28.8,28.8,0,0,0,1.9-3q.33-.59.48-.9l-.09-.13S146.77,51.48,146,52.38Z" style="fill:#da3b27"/><path d="M72,95s.31-9.33.12-12.22c-.14-2.09-1-7.78-1-7.78s-21.92,9.36-41.14,9.29S1.76,79.39,1,70.54" style="fill:none;stroke:#acb6b1;stroke-width:0.755745px"/><path d="M43,77.89S4,87.36,2.25,66.75" style="fill:none;stroke:#acb6b1;stroke-width:0.755745px"/><path d="M71.22,15.62s-12.3,14-14.85,16.17S42,43.74,41,44.22l-2.05,1s3.55-1.37,5-.2.49,4,.49,4,2.89-.19,3.74-2.6,4.1-9.23,6-10.52S65.26,23.45,67.08,22,74.19,17,74.19,17Z" style="fill:#081f53"/><path d="M85.18,24.11a4.32,4.32,0,1,0,4.91-3.54A4.28,4.28,0,0,0,85.18,24.11Z" style="fill:#081f53"/><path d="M73.32,34.22a4.32,4.32,0,1,0,4.9-3.54A4.27,4.27,0,0,0,73.32,34.22Z" style="fill:#081f53"/><path d="M61.43,45.43a4.32,4.32,0,1,0,4.91-3.54A4.29,4.29,0,0,0,61.43,45.43Z" style="fill:#081f53"/><path d="M89.62,25.26a33.53,33.53,0,0,0-21.5-12.18" style="fill:none;stroke:#dee9e2;stroke-linecap:round;stroke-linejoin:round;stroke-width:4.53448px"/><path d="M77.44,34.21s-5.12-8.09-18.19-12" style="fill:none;stroke:#dee9e2;stroke-linecap:round;stroke-linejoin:round;stroke-width:4.53448px"/><path d="M66.3,45.86a33.23,33.23,0,0,0-17.06-14.2" style="fill:none;stroke:#dee9e2;stroke-linecap:round;stroke-linejoin:round;stroke-width:4.53448px"/><path d="M96.5,11.38s-3.76-1.37-6.21-1l-2.45.42a7.21,7.21,0,0,0-1.66-2.64,20.22,20.22,0,0,1-1.54-1.34s3.94-4,6-3.7S96.63,9.49,96.5,11.38Z" style="fill:#081f53"/><path d="M198.37,92.64a21.58,21.58,0,0,0-.32-3.07c-.28-1.31-1.57-5.32-1.43-6.25s.74-5.93,0-8.27-2.54-6.26-5.35-7.64c-2.12-1-7.12-.55-9.78.57-3.06,1.28-13.89,4.56-15.91,5.36a79.89,79.89,0,0,1-8.58,2,46,46,0,0,0-3.75-6.6c-1.45-2-4.5-5-5.91-5-4-.12-6.25,3.5-6.25,3.5L138.27,70s-2-1.58-3.85-.75c-1.18.52-14.58,12.24-15.88,13.47s-10.2,9.56-11.3,10.51-10.3,8.12-10.87,8.83a33.15,33.15,0,0,1-4.51,4.55c-1.23.77-4.11,1.92-5.08,3s-1.61,3.25-2.63,3.73-4.77,2.13-4.77,2.13l18.17,29.79,83.87-29,17.32-11.5-.25-10.85Z" style="fill:#2c57a7"/><path d="M98.74,141.64S93,124.39,88.22,120a30.87,30.87,0,0,0-8.94-6s-24,8.26-23.67,23.88c.26,12.5,5.41,25,15.53,28.42s35.12,2,49.4-4.06a131.58,131.58,0,0,0,27.54-16c4.34-3.47,21.71-10,25.54-11.2s16.19-4.75,19.54-6.23c4.26-1.89,7.2-4.46,8.21-8s1-14,.61-17.55c-.06-.56-1.91-7.28-2.69-8.36l-.8-1.07s2.22,6.4-5.78,12.94c-6.72,5.49-24.81,9.66-29.27,10.63C152.75,119.85,137,128.25,133,130.65s-17,6.95-18.69,8-4.49,2.33-5.57,2.17-2.26-.83-3.73-.57S98.74,141.64,98.74,141.64Z" style="fill:#dee9e2"/><path d="M157.4,76.86s10.95-2,15.5-3.67,13.13-4.83,15.57-4.14,3.26,4.63,2.72,6.13-3.58,12-10.4,14-11.28,0-13.21-.9c-1.65-.79-5.82-4.54-7-5.51s-2.37-2.11-2.37-2.11Z" style="fill:#081f53"/><path d="M196.45,84.41s-8.1,17.28-18.86,18.41c-14.2,1.49-16.41-6.95-23.39-7.06-4.08-.07-7.28-.16-16.88,9.66s-12.58,11.58-13,15.49c-.25,2.18-.2,9.66.92,12.69" style="fill:none;stroke:#fff;stroke-width:0.377874px;stroke-dasharray:0.755744993686676"/><path d="M180.53,100.25s-3.83,1.16-10.65-1c-4-1.25-9.86-6.45-15.95-6.88-7.86-.57-20.77,13.19-21.2,13.92s-9.64,9.5-10.36,12.72c-1,4.46-.5,12.64.74,16" style="fill:none;stroke:#fff;stroke-width:0.377874px;stroke-dasharray:0.755744993686676"/><path d="M138.24,127.48s-9.87-6.11-20-8.61a78.12,78.12,0,0,0-13.61-2.39l5.77,23.6" style="fill:none;stroke:#fff;stroke-width:0.377874px;stroke-dasharray:0.755744993686676"/><path d="M135.83,128.7s-12.09-6.13-18.44-7.26a54.56,54.56,0,0,0-9.2-1.08l4.57,19" style="fill:none;stroke:#fff;stroke-width:0.377874px;stroke-dasharray:0.755744993686676"/><path d="M156.87,79.32s-11.08-5.5-19.09.11-33.34,33.2-34.08,35.95.78,18.87,2,24.3" style="fill:none;stroke:#fff;stroke-width:0.377874px;stroke-dasharray:0.755744993686676"/><path d="M137.45,70.16a6.5,6.5,0,0,0-3.65,1C132,72.35,97,103.39,95.91,105s-6.35,4.11-7.9,6" style="fill:none;stroke:#fff;stroke-width:0.377874px;stroke-dasharray:0.755744993686676"/><path d="M186.24,117.09c-4.31,1.31-11.23,3.43-17.5,5.38s-11.93,3.72-13.65,4.31a28.59,28.59,0,0,0-3.71,1.78c-4.78,2.57-11.74,6.93-13.63,8.13a35.68,35.68,0,0,1-10.51,4l-.45-2.23.25,0a32.84,32.84,0,0,0,9.49-3.65c1.28-.82,4.81-3,8.45-5.19,1.83-1.08,3.69-2.15,5.33-3a33.25,33.25,0,0,1,4-1.93c1.8-.62,7.43-2.38,13.71-4.33s13.2-4.07,17.52-5.38A30.53,30.53,0,0,0,198,107.48a31.73,31.73,0,0,0,3-3.46q.5-.67.75-1v-.15l.43,3.25S198.19,113.44,186.24,117.09Z" style="fill:#da3b27"/><path d="M201.63,116.1c-2,2.39-4.48,5.55-8.08,7.54a25.23,25.23,0,0,1-2.63,1.17c-3.91,1.54-10.65,3.74-16.89,5.74l-8.52,2.74c-2.42.78-4.3,1.41-5.12,1.74a45,45,0,0,0-4.32,2.13c-2.74,1.47-6.1,3.43-9.08,5.25s-5.58,3.52-6.74,4.43a31.07,31.07,0,0,1-12.09,5.45l-.41-2.23h0a28.91,28.91,0,0,0,11-5c.89-.71,2.34-1.69,4.11-2.82,2.65-1.7,6-3.71,9.08-5.45a72.46,72.46,0,0,1,7.51-3.88c1.09-.43,3.38-1.18,6.34-2.14,4.42-1.42,10.29-3.27,15.46-5,2.59-.86,5-1.69,6.94-2.41a37.77,37.77,0,0,0,4.17-1.72,23.32,23.32,0,0,0,7.33-6.88,33.1,33.1,0,0,0,1.91-3c.21-.38.37-.69.47-.9l-.09-.13S202.38,115.2,201.63,116.1Z" style="fill:#da3b27"/><path d="M127.59,158.75s.31-9.33.12-12.22c-.14-2.09-1-7.78-1-7.78s-21.93,9.37-41.14,9.29-28.17-4.93-28.88-13.78" style="fill:none;stroke:#acb6b1;stroke-width:0.755745px"/><path d="M98.59,141.61s-38.94,9.48-40.73-11.13" style="fill:none;stroke:#acb6b1;stroke-width:0.755745px"/><path d="M126.83,79.35s-12.3,14-14.85,16.16S97.6,107.46,96.57,107.94l-2,1s3.54-1.37,5-.2.49,4,.49,4,2.89-.2,3.74-2.61,4.1-9.23,6.05-10.52,11.12-12.45,12.92-13.92,7.12-5,7.12-5Z" style="fill:#081f53"/><path d="M140.79,87.83a4.32,4.32,0,1,0,4.91-3.54A4.28,4.28,0,0,0,140.79,87.83Z" style="fill:#081f53"/><path d="M128.92,97.94a4.32,4.32,0,1,0,4.92-3.54A4.29,4.29,0,0,0,128.92,97.94Z" style="fill:#081f53"/><path d="M117,109.16a4.32,4.32,0,1,0,4.92-3.55A4.29,4.29,0,0,0,117,109.16Z" style="fill:#081f53"/><path d="M145.23,89a33.54,33.54,0,0,0-21.5-12.17" style="fill:none;stroke:#dee9e2;stroke-linecap:round;stroke-linejoin:round;stroke-width:4.53448px"/><path d="M133.06,97.93s-5.13-8.09-18.2-12" style="fill:none;stroke:#dee9e2;stroke-linecap:round;stroke-linejoin:round;stroke-width:4.53448px"/><path d="M121.9,109.58a33.18,33.18,0,0,0-17.06-14.2" style="fill:none;stroke:#dee9e2;stroke-linecap:round;stroke-linejoin:round;stroke-width:4.53448px"/><path d="M152.11,75.1s-3.76-1.37-6.21-.95l-2.45.42a7.12,7.12,0,0,0-1.66-2.63,16.82,16.82,0,0,1-1.54-1.35s3.94-4,6-3.7S152.24,73.21,152.11,75.1Z" style="fill:#081f53"/></g></g></svg>